# xmcd
#
# Track frame offsets: 
#        200
#        17602
#        29735
#        49972
#        63950
#        90025
#        110957
#        129667
#        152475
#        171892
#        187975
#        214570
#
# Disc length: 3081 seconds
#
# Revision: 4
# Processed by: cddbd v1.5.2PL0 Copyright (c) Steve Scherf et al.
# Submitted via: ExactAudioCopyFreeDBPlugin 1.0
#
DISCID=9b0c070c
DTITLE=Lynwood Slim - Lost In America
DYEAR=1997
DGENRE=Blues
TTITLE0=Tried To Call You
TTITLE1=It's Obdacious
TTITLE2=Just Your Fool
TTITLE3=Take Me Where You Go
TTITLE4=Tell Me What I've Done
TTITLE5=Messin' With My Bread
TTITLE6=I'm Tired
TTITLE7=Cried Last Night
TTITLE8=Ain't Enough Time
TTITLE9=Ain't Enough Time (alt.)
TTITLE10=Atlanta Blues
TTITLE11=Got To Change
EXTD=
EXTT0=
EXTT1=
EXTT2=
EXTT3=
EXTT4=
EXTT5=
EXTT6=
EXTT7=
EXTT8=
EXTT9=
EXTT10=
EXTT11=
PLAYORDER=
